# Blender 4.3.2
# www.blender.org
mtllib untitled.mtl
o Plane.004
v -0.285980 0.087793 -1.173530
v -1.144246 0.112040 0.337330
v 1.197930 -0.048689 -0.369704
v 0.438578 -0.052832 1.136365
v -0.701531 0.810996 0.566781
v -0.651061 -0.886462 0.523266
v 0.213612 0.860604 -0.893796
v 0.384244 -0.845433 -0.844251
v -0.132370 0.865287 -0.904137
v 0.640218 0.915145 0.677252
v -0.110426 -0.877442 -0.874421
v 0.597300 -0.854515 0.708328
v -0.853383 0.839072 -0.066767
v -0.779082 -0.888941 0.022625
v 0.899307 0.844934 0.230770
v 0.903391 -0.894061 0.263643
v 0.790134 -0.007007 -0.637455
v 0.208085 -0.039477 -0.974587
v -0.570010 0.071877 -0.732520
v -0.911734 0.028464 -0.140294
v -0.691837 0.091320 0.630502
v -0.071364 0.030293 0.934616
v 0.711722 -0.003892 0.702817
v 1.018160 -0.006422 0.099140
v -0.051185 0.914984 -0.438473
v -0.470235 0.894838 0.117816
v -0.740878 0.307008 0.575650
v -0.693673 -0.356674 0.566193
v -0.335561 -0.931450 0.137690
v 0.121080 -0.888805 -0.363943
v 0.340035 -0.315179 -0.899986
v 0.305948 0.340676 -0.896426
v -0.129711 -0.364776 -0.913791
v -0.142410 0.321272 -0.914974
v 0.141114 0.913865 -0.449037
v 0.451087 0.941080 0.167223
v 0.647395 0.418053 0.710812
v 0.676636 -0.282631 0.703880
v 0.380732 -0.904611 0.234570
v 0.072267 -0.899042 -0.342677
v -0.352154 0.885364 0.132057
v 0.339981 0.912095 0.214316
v -0.838310 -0.353848 0.005277
v -0.864364 0.326930 -0.067091
v 0.378213 -0.941918 0.225965
v -0.257590 -0.955044 0.145485
v 0.941267 0.314342 0.264313
v 0.918627 -0.363976 0.257296
v -0.335759 0.333754 0.156597
v 0.362986 0.361180 0.180794
v -0.307991 -0.339205 0.204703
v 0.346116 -0.340150 0.216517
v 0.064201 0.351114 -0.366931
v 0.102107 -0.327073 -0.361843
v 0.427814 0.345403 0.199100
v 0.470258 -0.324233 0.173494
v -0.431147 0.324508 0.107985
v 0.002692 0.310865 -0.418592
v -0.290504 -0.321822 0.144353
v 0.136849 -0.295980 -0.357926
v -0.043382 -0.114105 -0.449036
v 0.544932 -0.077349 -0.116949
v -0.384474 -0.044522 0.135657
v 0.215500 -0.031146 0.464624
vn 0.1996 0.9592 0.2004
vn 0.1676 0.9776 -0.1275
vn -0.0394 0.9992 0.0114
vn 0.0484 0.9987 0.0162
vn 0.8612 -0.0007 0.5082
vn 0.7464 -0.0305 0.6648
vn 0.8496 0.1184 0.5140
vn 0.9087 0.0414 0.4155
vn 0.9006 -0.0980 -0.4234
vn 0.9284 -0.0358 -0.3698
vn 0.9338 -0.0283 -0.3567
vn 0.9154 -0.1553 -0.3714
vn -0.3803 0.0191 0.9246
vn -0.2952 -0.0628 0.9534
vn -0.0881 -0.0053 0.9961
vn -0.0716 0.0129 0.9974
vn -0.0763 0.9958 0.0516
vn 0.0486 0.9881 0.1460
vn 0.1962 0.9699 0.1441
vn 0.1810 0.9833 -0.0198
vn 0.1391 0.9816 -0.1310
vn 0.0814 0.9945 -0.0665
vn -0.0111 0.9994 -0.0321
vn -0.0525 0.9981 -0.0327
vn 0.8171 0.0921 0.5691
vn 0.8236 0.0345 0.5662
vn 0.8188 0.0631 0.5706
vn 0.7613 0.0479 0.6466
vn 0.7488 -0.0376 0.6617
vn 0.8356 -0.0040 0.5493
vn 0.8988 0.0895 0.4290
vn 0.8689 0.1284 0.4780
vn 0.9313 0.0019 -0.3644
vn 0.9171 -0.0302 -0.3976
vn 0.8826 -0.1105 -0.4569
vn 0.8980 -0.0807 -0.4326
vn 0.9264 0.0080 -0.3765
vn 0.9241 -0.0430 -0.3798
vn 0.8841 -0.1398 -0.4459
vn 0.8945 -0.0775 -0.4403
vn -0.2287 0.0040 0.9735
vn -0.0817 -0.0082 0.9966
vn -0.3359 0.0053 0.9419
vn -0.3760 0.0431 0.9256
vn -0.0712 -0.0164 0.9973
vn -0.1757 -0.0539 0.9830
vn -0.0976 0.0102 0.9952
vn -0.0886 0.0183 0.9959
vn -0.2178 0.0351 0.9754
vn -0.0748 0.0162 0.9971
vn -0.1934 0.0055 0.9811
vn -0.0691 0.0126 0.9975
vn 0.8861 -0.0341 -0.4622
vn 0.8912 -0.0148 -0.4534
vn 0.8923 -0.0083 -0.4514
vn 0.8867 -0.0431 -0.4603
vn 0.7953 0.0993 0.5981
vn 0.8212 0.1366 0.5541
vn 0.7587 0.0666 0.6480
vn 0.8354 0.0889 0.5424
vn 0.0698 0.9951 0.0698
vn -0.0504 0.9985 -0.0199
vn 0.1206 0.9906 -0.0648
vn 0.0261 0.9972 -0.0704
vt 0.666667 0.666667
vt 1.000000 0.666667
vt 1.000000 1.000000
vt 0.666667 1.000000
vt 1.000000 0.666667
vt 0.666667 1.000000
vt 0.000000 0.666667
vt 0.333333 0.666667
vt 0.333333 1.000000
vt 0.000000 1.000000
vt 0.000000 0.000000
vt 0.333333 0.000000
vt 0.333333 0.333333
vt 0.000000 0.333333
vt 0.666667 0.000000
vt 0.666667 0.333333
vt 1.000000 0.000000
vt 1.000000 0.333333
vt 0.000000 0.666667
vt 0.333333 1.000000
vt 0.333333 0.000000
vt 0.000000 0.333333
vt 0.666667 0.000000
vt 1.000000 0.333333
s 1
f 64/1/64 22/2/22 4/3/4 23/4/23
f 60/1/60 30/2/30 8/3/8 31/4/31
f 56/1/56 38/2/38 12/3/12 39/4/39
f 52/1/52 45/5/45 16/3/16 48/6/48
f 42/7/42 50/8/50 47/9/47 15/10/15
f 50/8/50 52/1/52 48/6/48 47/9/47
f 13/11/13 44/12/44 49/13/49 41/14/41
f 41/14/41 49/13/49 50/8/50 42/7/42
f 44/12/44 43/15/43 51/16/51 49/13/49
f 49/13/49 51/16/51 52/1/52 50/8/50
f 43/15/43 14/17/14 46/18/46 51/16/51
f 51/16/51 46/18/46 45/5/45 52/1/52
f 33/19/33 54/8/54 40/20/40 11/10/11
f 54/8/54 56/1/56 39/4/39 40/20/40
f 9/11/9 35/21/35 53/13/53 34/22/34
f 34/22/34 53/13/53 54/8/54 33/19/33
f 35/21/35 36/23/36 55/16/55 53/13/53
f 53/13/53 55/16/55 56/1/56 54/8/54
f 36/23/36 10/17/10 37/24/37 55/16/55
f 55/16/55 37/24/37 38/2/38 56/1/56
f 25/19/25 58/8/58 32/20/32 7/10/7
f 58/8/58 60/1/60 31/4/31 32/20/32
f 5/11/5 27/21/27 57/13/57 26/22/26
f 26/22/26 57/13/57 58/8/58 25/19/25
f 27/21/27 28/23/28 59/16/59 57/13/57
f 57/13/57 59/16/59 60/1/60 58/8/58
f 28/23/28 6/17/6 29/24/29 59/16/59
f 59/16/59 29/24/29 30/2/30 60/1/60
f 17/19/17 62/8/62 24/20/24 3/10/3
f 62/8/62 64/1/64 23/4/23 24/20/24
f 1/11/1 19/21/19 61/13/61 18/22/18
f 18/22/18 61/13/61 62/8/62 17/19/17
f 19/21/19 20/23/20 63/16/63 61/13/61
f 61/13/61 63/16/63 64/1/64 62/8/62
f 20/23/20 2/17/2 21/24/21 63/16/63
f 63/16/63 21/24/21 22/2/22 64/1/64
